<mxfile host="Electron" modified="2024-04-26T14:39:29.687Z" agent="Mozilla/5.0 (X11; Linux x86_64) AppleWebKit/537.36 (KHTML, like Gecko) draw.io/24.2.5 Chrome/120.0.6099.109 Electron/28.1.0 Safari/537.36" etag="uJKb0Apucp7xpwEsrrXL" version="24.2.5" type="device">
  <diagram name="Page-1" id="bExJU45b1QfftXB1pWpj">
    <mxGraphModel dx="2537" dy="982" grid="1" gridSize="10" guides="1" tooltips="1" connect="1" arrows="1" fold="1" page="1" pageScale="1" pageWidth="850" pageHeight="1100" math="0" shadow="0">
      <root>
        <mxCell id="0" />
        <mxCell id="1" parent="0" />
        <mxCell id="4o9KOTTKl6TcSAQrTEUx-9" value="3" style="rounded=1;whiteSpace=wrap;html=1;shadow=0;strokeColor=#6c8ebf;strokeWidth=1;fontFamily=Ubuntu;fontSize=16;fontStyle=0;fillColor=#dae8fc;" vertex="1" parent="1">
          <mxGeometry x="-480" y="320" width="40" height="40" as="geometry" />
        </mxCell>
        <mxCell id="4o9KOTTKl6TcSAQrTEUx-17" value="3" style="rounded=1;whiteSpace=wrap;html=1;shadow=0;strokeColor=#6c8ebf;strokeWidth=1;fontFamily=Ubuntu;fontSize=16;fontStyle=0;fillColor=#dae8fc;" vertex="1" parent="1">
          <mxGeometry x="-600" y="320" width="40" height="40" as="geometry" />
        </mxCell>
        <mxCell id="4o9KOTTKl6TcSAQrTEUx-18" value="3" style="rounded=1;whiteSpace=wrap;html=1;shadow=0;strokeColor=#6c8ebf;strokeWidth=1;fontFamily=Ubuntu;fontSize=16;fontStyle=0;fillColor=#dae8fc;" vertex="1" parent="1">
          <mxGeometry x="-560" y="320" width="40" height="40" as="geometry" />
        </mxCell>
        <mxCell id="4o9KOTTKl6TcSAQrTEUx-19" value="3" style="rounded=1;whiteSpace=wrap;html=1;shadow=0;strokeColor=#6c8ebf;strokeWidth=1;fontFamily=Ubuntu;fontSize=16;fontStyle=0;fillColor=#dae8fc;" vertex="1" parent="1">
          <mxGeometry x="-520" y="320" width="40" height="40" as="geometry" />
        </mxCell>
        <mxCell id="4o9KOTTKl6TcSAQrTEUx-20" value="max_exp = 3^19" style="text;html=1;align=center;verticalAlign=middle;whiteSpace=wrap;rounded=0;fontFamily=Ubuntu;fontSize=16;fontStyle=0;" vertex="1" parent="1">
          <mxGeometry x="-760" y="330" width="130" height="30" as="geometry" />
        </mxCell>
        <mxCell id="4o9KOTTKl6TcSAQrTEUx-21" value="n = 81 = 3^4" style="text;html=1;align=center;verticalAlign=middle;whiteSpace=wrap;rounded=0;fontFamily=Ubuntu;fontSize=16;fontStyle=0;" vertex="1" parent="1">
          <mxGeometry x="-730" y="405" width="100" height="30" as="geometry" />
        </mxCell>
        <mxCell id="4o9KOTTKl6TcSAQrTEUx-22" value="3" style="rounded=1;whiteSpace=wrap;html=1;shadow=0;strokeColor=#82b366;strokeWidth=1;fontFamily=Ubuntu;fontSize=16;fontStyle=0;fillColor=#d5e8d4;" vertex="1" parent="1">
          <mxGeometry x="-480" y="400" width="40" height="40" as="geometry" />
        </mxCell>
        <mxCell id="4o9KOTTKl6TcSAQrTEUx-23" value="3" style="rounded=1;whiteSpace=wrap;html=1;shadow=0;strokeColor=#82b366;strokeWidth=1;fontFamily=Ubuntu;fontSize=16;fontStyle=0;fillColor=#d5e8d4;" vertex="1" parent="1">
          <mxGeometry x="-600" y="400" width="40" height="40" as="geometry" />
        </mxCell>
        <mxCell id="4o9KOTTKl6TcSAQrTEUx-24" value="3" style="rounded=1;whiteSpace=wrap;html=1;shadow=0;strokeColor=#82b366;strokeWidth=1;fontFamily=Ubuntu;fontSize=16;fontStyle=0;fillColor=#d5e8d4;" vertex="1" parent="1">
          <mxGeometry x="-560" y="400" width="40" height="40" as="geometry" />
        </mxCell>
        <mxCell id="4o9KOTTKl6TcSAQrTEUx-25" value="3" style="rounded=1;whiteSpace=wrap;html=1;shadow=0;strokeColor=#82b366;strokeWidth=1;fontFamily=Ubuntu;fontSize=16;fontStyle=0;fillColor=#d5e8d4;" vertex="1" parent="1">
          <mxGeometry x="-520" y="400" width="40" height="40" as="geometry" />
        </mxCell>
        <mxCell id="4o9KOTTKl6TcSAQrTEUx-26" value="m = 3^15" style="text;html=1;align=center;verticalAlign=middle;whiteSpace=wrap;rounded=0;fontFamily=Ubuntu;fontSize=16;fontStyle=0;" vertex="1" parent="1">
          <mxGeometry x="-710" y="482" width="80" height="30" as="geometry" />
        </mxCell>
        <mxCell id="4o9KOTTKl6TcSAQrTEUx-27" value="3" style="rounded=1;whiteSpace=wrap;html=1;shadow=0;strokeColor=#6c8ebf;strokeWidth=1;fontFamily=Ubuntu;fontSize=16;fontStyle=0;fillColor=#dae8fc;" vertex="1" parent="1">
          <mxGeometry x="-320" y="320" width="40" height="40" as="geometry" />
        </mxCell>
        <mxCell id="4o9KOTTKl6TcSAQrTEUx-28" value="3" style="rounded=1;whiteSpace=wrap;html=1;shadow=0;strokeColor=#6c8ebf;strokeWidth=1;fontFamily=Ubuntu;fontSize=16;fontStyle=0;fillColor=#dae8fc;" vertex="1" parent="1">
          <mxGeometry x="-440" y="320" width="40" height="40" as="geometry" />
        </mxCell>
        <mxCell id="4o9KOTTKl6TcSAQrTEUx-29" value="3" style="rounded=1;whiteSpace=wrap;html=1;shadow=0;strokeColor=#6c8ebf;strokeWidth=1;fontFamily=Ubuntu;fontSize=16;fontStyle=0;fillColor=#dae8fc;" vertex="1" parent="1">
          <mxGeometry x="-400" y="320" width="40" height="40" as="geometry" />
        </mxCell>
        <mxCell id="4o9KOTTKl6TcSAQrTEUx-30" value="3" style="rounded=1;whiteSpace=wrap;html=1;shadow=0;strokeColor=#6c8ebf;strokeWidth=1;fontFamily=Ubuntu;fontSize=16;fontStyle=0;fillColor=#dae8fc;" vertex="1" parent="1">
          <mxGeometry x="-360" y="320" width="40" height="40" as="geometry" />
        </mxCell>
        <mxCell id="4o9KOTTKl6TcSAQrTEUx-31" value="3" style="rounded=1;whiteSpace=wrap;html=1;shadow=0;strokeColor=#6c8ebf;strokeWidth=1;fontFamily=Ubuntu;fontSize=16;fontStyle=0;fillColor=#dae8fc;" vertex="1" parent="1">
          <mxGeometry x="-160" y="320" width="40" height="40" as="geometry" />
        </mxCell>
        <mxCell id="4o9KOTTKl6TcSAQrTEUx-32" value="3" style="rounded=1;whiteSpace=wrap;html=1;shadow=0;strokeColor=#6c8ebf;strokeWidth=1;fontFamily=Ubuntu;fontSize=16;fontStyle=0;fillColor=#dae8fc;" vertex="1" parent="1">
          <mxGeometry x="-280" y="320" width="40" height="40" as="geometry" />
        </mxCell>
        <mxCell id="4o9KOTTKl6TcSAQrTEUx-33" value="3" style="rounded=1;whiteSpace=wrap;html=1;shadow=0;strokeColor=#6c8ebf;strokeWidth=1;fontFamily=Ubuntu;fontSize=16;fontStyle=0;fillColor=#dae8fc;" vertex="1" parent="1">
          <mxGeometry x="-240" y="320" width="40" height="40" as="geometry" />
        </mxCell>
        <mxCell id="4o9KOTTKl6TcSAQrTEUx-34" value="3" style="rounded=1;whiteSpace=wrap;html=1;shadow=0;strokeColor=#6c8ebf;strokeWidth=1;fontFamily=Ubuntu;fontSize=16;fontStyle=0;fillColor=#dae8fc;" vertex="1" parent="1">
          <mxGeometry x="-200" y="320" width="40" height="40" as="geometry" />
        </mxCell>
        <mxCell id="4o9KOTTKl6TcSAQrTEUx-35" value="3" style="rounded=1;whiteSpace=wrap;html=1;shadow=0;strokeColor=#6c8ebf;strokeWidth=1;fontFamily=Ubuntu;fontSize=16;fontStyle=0;fillColor=#dae8fc;" vertex="1" parent="1">
          <mxGeometry y="320" width="40" height="40" as="geometry" />
        </mxCell>
        <mxCell id="4o9KOTTKl6TcSAQrTEUx-36" value="3" style="rounded=1;whiteSpace=wrap;html=1;shadow=0;strokeColor=#6c8ebf;strokeWidth=1;fontFamily=Ubuntu;fontSize=16;fontStyle=0;fillColor=#dae8fc;" vertex="1" parent="1">
          <mxGeometry x="-120" y="320" width="40" height="40" as="geometry" />
        </mxCell>
        <mxCell id="4o9KOTTKl6TcSAQrTEUx-37" value="3" style="rounded=1;whiteSpace=wrap;html=1;shadow=0;strokeColor=#6c8ebf;strokeWidth=1;fontFamily=Ubuntu;fontSize=16;fontStyle=0;fillColor=#dae8fc;" vertex="1" parent="1">
          <mxGeometry x="-80" y="320" width="40" height="40" as="geometry" />
        </mxCell>
        <mxCell id="4o9KOTTKl6TcSAQrTEUx-38" value="3" style="rounded=1;whiteSpace=wrap;html=1;shadow=0;strokeColor=#6c8ebf;strokeWidth=1;fontFamily=Ubuntu;fontSize=16;fontStyle=0;fillColor=#dae8fc;" vertex="1" parent="1">
          <mxGeometry x="-40" y="320" width="40" height="40" as="geometry" />
        </mxCell>
        <mxCell id="4o9KOTTKl6TcSAQrTEUx-39" value="3" style="rounded=1;whiteSpace=wrap;html=1;shadow=0;strokeColor=#6c8ebf;strokeWidth=1;fontFamily=Ubuntu;fontSize=16;fontStyle=0;fillColor=#dae8fc;" vertex="1" parent="1">
          <mxGeometry x="120" y="320" width="40" height="40" as="geometry" />
        </mxCell>
        <mxCell id="4o9KOTTKl6TcSAQrTEUx-40" value="3" style="rounded=1;whiteSpace=wrap;html=1;shadow=0;strokeColor=#6c8ebf;strokeWidth=1;fontFamily=Ubuntu;fontSize=16;fontStyle=0;fillColor=#dae8fc;" vertex="1" parent="1">
          <mxGeometry x="40" y="320" width="40" height="40" as="geometry" />
        </mxCell>
        <mxCell id="4o9KOTTKl6TcSAQrTEUx-41" value="3" style="rounded=1;whiteSpace=wrap;html=1;shadow=0;strokeColor=#6c8ebf;strokeWidth=1;fontFamily=Ubuntu;fontSize=16;fontStyle=0;fillColor=#dae8fc;" vertex="1" parent="1">
          <mxGeometry x="80" y="320" width="40" height="40" as="geometry" />
        </mxCell>
        <mxCell id="4o9KOTTKl6TcSAQrTEUx-42" value="3" style="rounded=1;whiteSpace=wrap;html=1;shadow=0;strokeColor=#6c8ebf;strokeWidth=1;fontFamily=Ubuntu;fontSize=16;fontStyle=0;fillColor=#dae8fc;" vertex="1" parent="1">
          <mxGeometry x="-320" y="480" width="40" height="40" as="geometry" />
        </mxCell>
        <mxCell id="4o9KOTTKl6TcSAQrTEUx-43" value="3" style="rounded=1;whiteSpace=wrap;html=1;shadow=0;strokeColor=#6c8ebf;strokeWidth=1;fontFamily=Ubuntu;fontSize=16;fontStyle=0;fillColor=#dae8fc;" vertex="1" parent="1">
          <mxGeometry x="-440" y="480" width="40" height="40" as="geometry" />
        </mxCell>
        <mxCell id="4o9KOTTKl6TcSAQrTEUx-44" value="3" style="rounded=1;whiteSpace=wrap;html=1;shadow=0;strokeColor=#6c8ebf;strokeWidth=1;fontFamily=Ubuntu;fontSize=16;fontStyle=0;fillColor=#dae8fc;" vertex="1" parent="1">
          <mxGeometry x="-400" y="480" width="40" height="40" as="geometry" />
        </mxCell>
        <mxCell id="4o9KOTTKl6TcSAQrTEUx-45" value="3" style="rounded=1;whiteSpace=wrap;html=1;shadow=0;strokeColor=#6c8ebf;strokeWidth=1;fontFamily=Ubuntu;fontSize=16;fontStyle=0;fillColor=#dae8fc;" vertex="1" parent="1">
          <mxGeometry x="-360" y="480" width="40" height="40" as="geometry" />
        </mxCell>
        <mxCell id="4o9KOTTKl6TcSAQrTEUx-46" value="3" style="rounded=1;whiteSpace=wrap;html=1;shadow=0;strokeColor=#6c8ebf;strokeWidth=1;fontFamily=Ubuntu;fontSize=16;fontStyle=0;fillColor=#dae8fc;" vertex="1" parent="1">
          <mxGeometry x="-160" y="480" width="40" height="40" as="geometry" />
        </mxCell>
        <mxCell id="4o9KOTTKl6TcSAQrTEUx-47" value="3" style="rounded=1;whiteSpace=wrap;html=1;shadow=0;strokeColor=#6c8ebf;strokeWidth=1;fontFamily=Ubuntu;fontSize=16;fontStyle=0;fillColor=#dae8fc;" vertex="1" parent="1">
          <mxGeometry x="-280" y="480" width="40" height="40" as="geometry" />
        </mxCell>
        <mxCell id="4o9KOTTKl6TcSAQrTEUx-48" value="3" style="rounded=1;whiteSpace=wrap;html=1;shadow=0;strokeColor=#6c8ebf;strokeWidth=1;fontFamily=Ubuntu;fontSize=16;fontStyle=0;fillColor=#dae8fc;" vertex="1" parent="1">
          <mxGeometry x="-240" y="480" width="40" height="40" as="geometry" />
        </mxCell>
        <mxCell id="4o9KOTTKl6TcSAQrTEUx-49" value="3" style="rounded=1;whiteSpace=wrap;html=1;shadow=0;strokeColor=#6c8ebf;strokeWidth=1;fontFamily=Ubuntu;fontSize=16;fontStyle=0;fillColor=#dae8fc;" vertex="1" parent="1">
          <mxGeometry x="-200" y="480" width="40" height="40" as="geometry" />
        </mxCell>
        <mxCell id="4o9KOTTKl6TcSAQrTEUx-50" value="3" style="rounded=1;whiteSpace=wrap;html=1;shadow=0;strokeColor=#6c8ebf;strokeWidth=1;fontFamily=Ubuntu;fontSize=16;fontStyle=0;fillColor=#dae8fc;" vertex="1" parent="1">
          <mxGeometry y="480" width="40" height="40" as="geometry" />
        </mxCell>
        <mxCell id="4o9KOTTKl6TcSAQrTEUx-51" value="3" style="rounded=1;whiteSpace=wrap;html=1;shadow=0;strokeColor=#6c8ebf;strokeWidth=1;fontFamily=Ubuntu;fontSize=16;fontStyle=0;fillColor=#dae8fc;" vertex="1" parent="1">
          <mxGeometry x="-120" y="480" width="40" height="40" as="geometry" />
        </mxCell>
        <mxCell id="4o9KOTTKl6TcSAQrTEUx-52" value="3" style="rounded=1;whiteSpace=wrap;html=1;shadow=0;strokeColor=#6c8ebf;strokeWidth=1;fontFamily=Ubuntu;fontSize=16;fontStyle=0;fillColor=#dae8fc;" vertex="1" parent="1">
          <mxGeometry x="-80" y="480" width="40" height="40" as="geometry" />
        </mxCell>
        <mxCell id="4o9KOTTKl6TcSAQrTEUx-53" value="3" style="rounded=1;whiteSpace=wrap;html=1;shadow=0;strokeColor=#6c8ebf;strokeWidth=1;fontFamily=Ubuntu;fontSize=16;fontStyle=0;fillColor=#dae8fc;" vertex="1" parent="1">
          <mxGeometry x="-40" y="480" width="40" height="40" as="geometry" />
        </mxCell>
        <mxCell id="4o9KOTTKl6TcSAQrTEUx-54" value="3" style="rounded=1;whiteSpace=wrap;html=1;shadow=0;strokeColor=#6c8ebf;strokeWidth=1;fontFamily=Ubuntu;fontSize=16;fontStyle=0;fillColor=#dae8fc;" vertex="1" parent="1">
          <mxGeometry x="120" y="480" width="40" height="40" as="geometry" />
        </mxCell>
        <mxCell id="4o9KOTTKl6TcSAQrTEUx-55" value="3" style="rounded=1;whiteSpace=wrap;html=1;shadow=0;strokeColor=#6c8ebf;strokeWidth=1;fontFamily=Ubuntu;fontSize=16;fontStyle=0;fillColor=#dae8fc;" vertex="1" parent="1">
          <mxGeometry x="40" y="480" width="40" height="40" as="geometry" />
        </mxCell>
        <mxCell id="4o9KOTTKl6TcSAQrTEUx-56" value="3" style="rounded=1;whiteSpace=wrap;html=1;shadow=0;strokeColor=#6c8ebf;strokeWidth=1;fontFamily=Ubuntu;fontSize=16;fontStyle=0;fillColor=#dae8fc;" vertex="1" parent="1">
          <mxGeometry x="80" y="480" width="40" height="40" as="geometry" />
        </mxCell>
        <mxCell id="4o9KOTTKl6TcSAQrTEUx-57" value="max_exp = m * n" style="text;html=1;align=center;verticalAlign=middle;whiteSpace=wrap;rounded=0;fontFamily=Ubuntu;fontSize=16;fontStyle=0;fillColor=#fff2cc;strokeColor=#d6b656;" vertex="1" parent="1">
          <mxGeometry x="-770" y="560" width="140" height="30" as="geometry" />
        </mxCell>
      </root>
    </mxGraphModel>
  </diagram>
</mxfile>
